<svg width="1861" height="1842" xmlns="http://www.w3.org/2000/svg" xmlns:xlink="http://www.w3.org/1999/xlink" xml:space="preserve" overflow="hidden"><g transform="translate(-1653 -169)"><path d="M1937 869.5C1937 513 2230.25 224 2592 224 2953.75 224 3247 513 3247 869.5 3247 1226 2953.75 1515 2592 1515 2230.25 1515 1937 1226 1937 869.5Z" stroke="#4940E4" stroke-width="91.6667" stroke-miterlimit="8" fill="#FFFFFF" fill-rule="evenodd"/><path d="M2811 425.5C2811 302.064 2911.74 202 3036 202 3160.26 202 3261 302.064 3261 425.5 3261 548.936 3160.26 649 3036 649 2911.74 649 2811 548.936 2811 425.5Z" fill="#FFFFFF" fill-rule="evenodd"/><path d="M2207.98 1133.96 2192.89 693.122 2675.91 372.79 2691 813.629Z" stroke="#4940E4" stroke-width="45.8333" stroke-miterlimit="8" fill="#FFFFFF" fill-rule="evenodd"/><path d="M0 329.292 202.508 0 793.249 0 590.742 329.292Z" stroke="#4940E4" stroke-width="45.8333" stroke-miterlimit="8" fill="#4940E4" fill-rule="evenodd" transform="matrix(0.833387 -0.55269 -0.55269 -0.833387 2427.72 1467.2)"/><path d="M2311.59 843.102 2309.1 770.614 2404.32 707.466 2406.81 779.953Z" stroke="#4940E4" stroke-width="45.8333" stroke-miterlimit="8" fill="#4940E4" fill-rule="evenodd"/><path d="M2533.86 697.059 2533.11 675.144 2570.08 650.629 2570.83 672.544Z" stroke="#4940E4" stroke-width="45.8333" stroke-miterlimit="8" fill="#4472C4" fill-rule="evenodd"/><path d="M2454.79 821.713 2454.04 799.798 2491.01 775.283 2491.76 797.198Z" stroke="#4940E4" stroke-width="45.8333" stroke-miterlimit="8" fill="#4472C4" fill-rule="evenodd"/><g><g><g><path d="M255.5 319.375C220.369 319.375 191.625 290.631 191.625 255.5 191.625 220.369 220.369 191.625 255.5 191.625 290.631 191.625 319.375 220.369 319.375 255.5 319.375 290.631 290.631 319.375 255.5 319.375ZM399.219 215.578C396.025 203.868 391.234 192.69 385.379 182.576L398.686 142.654 368.346 112.313 328.424 125.621C317.778 119.766 306.6 114.975 294.889 111.781L276.792 74.5208 234.208 74.5208 215.578 111.781C203.868 114.975 192.69 119.766 182.576 125.621L142.654 112.313 112.313 142.654 125.621 182.576C119.766 193.222 114.975 204.4 111.781 216.11L74.5208 234.208 74.5208 276.792 111.781 295.422C114.975 307.132 119.766 318.31 125.621 328.424L112.313 368.346 142.654 398.686 182.576 385.379C193.222 391.234 204.4 396.025 216.11 399.219L234.741 436.479 277.324 436.479 295.954 399.219C307.664 396.025 318.843 391.234 328.956 385.379L368.878 398.686 399.219 368.346 385.911 328.424C391.767 317.778 396.557 306.6 399.751 294.889L437.011 276.259 437.011 233.676 399.219 215.578Z" fill="#4940E4" transform="matrix(1 0 0 1 2783 169)"/></g></g></g><text fill="#4940E4" font-family="ALS Agrofont Expanded,ALS Agrofont Expanded_MSFontService,sans-serif" font-weight="700" font-stretch="expanded" font-size="183" transform="matrix(1 0 0 1 2033.32 1751)">s</text><text fill="#4940E4" font-family="ALS Agrofont Expanded,ALS Agrofont Expanded_MSFontService,sans-serif" font-weight="700" font-stretch="expanded" font-size="183" transform="matrix(1 0 0 1 2136.44 1751)">istemka.u</text><text fill="#4940E4" font-family="ALS Agrofont Expanded,ALS Agrofont Expanded_MSFontService,sans-serif" font-weight="700" font-stretch="expanded" font-size="183" transform="matrix(1 0 0 1 3092.64 1751)">z</text><text fill="#4940E4" font-family="ALS Agrofont Medium,ALS Agrofont Medium_MSFontService,sans-serif" font-weight="500" font-size="128" transform="matrix(1 0 0 1 1730.86 1903)">Hardware &amp; Software </text><text fill="#4940E4" font-family="ALS Agrofont Medium,ALS Agrofont Medium_MSFontService,sans-serif" font-weight="500" font-size="128" transform="matrix(1 0 0 1 3039.41 1903)">United</text></g></svg>